# xmcd
#
# Track frame offsets:
#	150
#	12527
#	25617
#	40372
#	54511
#	68018
#	80233
#	92633
#	105516
#	118911
#	132179
#	146121
#	158789
#	172746
#	185562
#	199382
#	212525
#	224481
#	235662
#	249011
#	263138
#	277208
#	290441
#	301448
#	315161
#
# Disc length: 4353 seconds
# Revision: 0
# Processed by: cddbd v1.5.2PL0 Copyright (c) Steve Scherf et al.
# Submitted via: dBpowerAMP V12.0
#
DISCID=6a10ff19
DTITLE=Various Artist - Let Me Tell You About The Blues - Chicago
DYEAR=1950
DGENRE=Blues
TTITLE0=Jimmy Rogers - Goin' Away Baby
TTITLE1=Little Walter - I Just Keep Loving Her
TTITLE2=Tampa Red - Love Her With A Feelin'
TTITLE3=Tony Hollins - Crawlin' King Snake
TTITLE4=Big Bill Broonzy - South Bound Train
TTITLE5=Robert Lockwood - Dust My Broom
TTITLE6=Little Walter - Juke
TTITLE7=Robert Nighthawk - Seventy Four
TTITLE8=Sunnyland Slim - Worried About My Baby
TTITLE9=J.B. Lenoir - The Mojo
TTITLE10=John Brim - Tough Times
TTITLE11=Jimmy Reed - High And Lonesome
TTITLE12=Junior Wells - Hoodoo Man
TTITLE13=Roosevelt Sykes - Been Through The Mill
TTITLE14=Walter Horton - Hard Hearted Woman
TTITLE15=Eddie Taylor - Ride 'Em On Down
TTITLE16=Billy Boy Arnold - I Wish You Would
TTITLE17=Henry Gray - That Ain't Right
TTITLE18=Muddy Waters - Mannish Boy
TTITLE19=Howlin' Wolf - Smokestack Lightnin'
TTITLE20=Otis Rush - I Can't Quit You Baby
TTITLE21=Magic Sam - All Your Love
TTITLE22=Elmore James - Coming Home
TTITLE23=Buddy Guy - Sit And Cry (The Blues)
TTITLE24=Sonny Boy Williamson 2 - Your Funeral And My Trial
EXTD=
EXTT0=
EXTT1=
EXTT2=
EXTT3=
EXTT4=
EXTT5=
EXTT6=
EXTT7=
EXTT8=
EXTT9=
EXTT10=
EXTT11=
EXTT12=
EXTT13=
EXTT14=
EXTT15=
EXTT16=
EXTT17=
EXTT18=
EXTT19=
EXTT20=
EXTT21=
EXTT22=
EXTT23=
EXTT24=
PLAYORDER=
